<svg id="" data-name="" xmlns="http://www.w3.org/2000/svg" width="103" height="35.25" viewBox="0 0 103 35.25">
  <path id="Icon_awesome-shoe-prints" data-name="Icon awesome-shoe-prints" d="M10.575,8.813h1.762V1.763H10.575a3.525,3.525,0,1,0,0,7.05ZM0,22.912a3.525,3.525,0,0,0,3.525,3.525H5.287v-7.05H3.525A3.525,3.525,0,0,0,0,22.912Zm18.587-7.05a11.265,11.265,0,0,0-5.768,1.762A8.417,8.417,0,0,1,7.05,19.388v7.05l3.169.88a22.509,22.509,0,0,0,4.423.829,19.16,19.16,0,0,0,5.375-.341c6.03-1.3,8.183-4.164,8.183-6.655,0-3.525-4.636-5.287-9.613-5.287ZM27.066.4A19.139,19.139,0,0,0,21.692.055a22.548,22.548,0,0,0-4.423.828l-3.169.88v7.05a8.419,8.419,0,0,1,5.768,1.762,11.265,11.265,0,0,0,5.768,1.762c4.977,0,9.613-1.762,9.613-5.287C35.25,4.559,33.1,1.691,27.066.4Z" transform="translate(0 35.25) rotate(-90)" fill="#f1ecdf"/>
  <text id="Hike-it" transform="translate(40 26.125)" fill="#f1ecdf" font-size="22" font-family="AdobeClean-Bold, Adobe Clean" font-weight="700"><tspan x="0" y="0">Hike-it</tspan></text>
</svg>
